<?xml version="1.0" encoding="utf-8"?>
<!-- Generator: Adobe Illustrator 20.1.0, SVG Export Plug-In . SVG Version: 6.00 Build 0)  -->
<svg version="1.1" id="Layer_1" xmlns="http://www.w3.org/2000/svg" xmlns:xlink="http://www.w3.org/1999/xlink" x="0px" y="0px"
	 viewBox="0 0 1146.9 965.7" style="enable-background:new 0 0 1146.9 965.7;" xml:space="preserve">
<style type="text/css">
	.st0{display:none;}
	.st1{display:inline;fill:#603192;}
	.st2{display:inline;}
	.st3{fill:#603192;}
	.st4{fill:#6E3E98;}
	.st5{fill:#613291;}
	.st6{fill:#6E3F98;}
	.st7{fill:#0FA54A;}
</style>
<g class="st0">
	<path class="st1" d="M111.7,925.6v32.3h21v6.8H104v-39.2H111.7z"/>
	<path class="st1" d="M199.8,957.3h-21.4l-3.5,7.4h-8.4l18.4-39.2h8.4l18.4,39.2h-8.4L199.8,957.3z M189.1,933.8l-7.6,16.7h15.2
		L189.1,933.8z"/>
	<path class="st1" d="M280.4,936.9c0,3-1.5,5.9-5.3,7.6c4.8,1.4,6.5,6.3,6.5,8.7c0,8.7-6.8,11.5-15.3,11.5c-6.5,0-12.9,0-19.4,0
		v-39.2c6.4,0,12.9,0,19.4,0C274.4,925.6,280.4,929,280.4,936.9z M254.5,941.3h11.8c4.9,0,6.4-2,6.4-4.2c0-1.8-1.5-4.8-6.4-4.8
		h-11.8V941.3z M254.5,957.8h11.8c3.2,0,7.7-1,7.7-4.7c0-3.5-4.5-5.4-7.7-5.4h-11.8V957.8z"/>
	<path class="st1" d="M346.1,935c-1.4-2.2-5.3-4.4-9.7-4.4c-5.7,0-8.5,2.3-8.5,5.2c0,3.4,4.2,4.4,9.1,4.9c8.5,1,16.5,3.1,16.5,12.5
		c0,8.7-8.1,12.5-17.2,12.5c-8.4,0-14.8-2.5-17.8-9.6l6.4-3.2c1.8,4.3,6.5,6.2,11.5,6.2c4.9,0,9.4-1.6,9.4-5.9c0-3.7-4-5.2-9.5-5.8
		c-8.4-1-16.1-3.1-16.1-11.9c0-8.1,8.3-11.4,15.8-11.4c6.4,0,13,1.7,16.1,7.8L346.1,935z"/>
</g>
<g class="st0">
	<g id="XMLID_1_" class="st2">
		<g>
			<path class="st3" d="M928.2,604.5l-8.3,4.3c-4-4.6-11.7-8.7-20.9-8.7c-14.8,0-20.1,7.2-20.1,13.9c0,10.7,13.8,12.4,21.2,13.2
				c10.5,1.3,19,3.4,24.6,7.8h-34.8c-13.2-2.8-21.4-8.4-21.4-21.5c0-7.1,3.1-12.7,9.3-16.6c5.4-3.4,12.8-5.4,20.8-5.4
				C912.9,591.3,922.9,595.7,928.2,604.5z"/>
			<polygon class="st3" points="838.8,594.2 838.8,604.5 793.8,604.5 791.2,604.5 791.2,607.1 791.2,626.6 791.2,629.2 793.8,629.2 
				837.1,629.2 837.1,634.9 780.6,634.9 780.6,594.2 			"/>
			<polygon class="st3" points="756.2,594.2 728.1,634.9 709.8,634.9 682.7,594.2 695.9,594.2 716.7,628 718.8,631.5 721.1,628 
				742.8,594.2 			"/>
			<polygon class="st3" points="655.1,594.2 655.1,604.5 610.2,604.5 607.6,604.5 607.6,607.1 607.6,626.6 607.6,629.2 610.2,629.2 
				653.4,629.2 653.4,634.9 596.9,634.9 596.9,594.2 			"/>
			<path class="st3" d="M571.7,619.7c0,4.2-0.8,10.2-4.5,15.3h-16.1c6.7-2.6,9.8-8.8,9.8-14.9c0-7.8-5.4-16.2-17.1-16.2h-24.3h-2.6
				v2.6v27.1v1.3h-10.8v-40.8c5.9,0,11.8,0,17.5,0.1c6.6,0,13.4,0.1,20.1,0.1C563.1,594.4,571.7,607.1,571.7,619.7z"/>
			<rect x="464" y="594.4" class="st3" width="10.6" height="40.6"/>
			<rect x="405.5" y="594.4" class="st3" width="10.6" height="40.6"/>
			<path class="st3" d="M366.3,603.8c7.6,7.7,11.9,18.8,11.7,30.6c0,0.2,0,0.3,0,0.5h-10.5l0-0.2c0.2-9.7-3.1-18.6-9-24.6
				c-5.3-5.4-12.7-8.3-21.3-8.3c-8.7,0-16.1,2.9-21.5,8.5c-5.9,6.1-9.2,15-8.9,24.6v0.1h-10.5c0-0.1,0-0.3,0-0.4
				c0-20.2,12.8-42,40.9-42C348.9,592.5,359,596.4,366.3,603.8z"/>
			<polygon class="st3" points="225.8,632.8 228.4,632.8 268.2,632.8 268.2,634.9 215,634.9 215,594.4 270.6,594.4 270.6,604.5 
				228.4,604.5 225.8,604.5 225.8,607.1 225.8,630.2 			"/>
			<path class="st3" d="M919.1,612.1c-2.9-4.8-10.9-9.4-20.1-9.4c-11.8,0-17.5,5-17.5,11.3c0,7.4,8.7,9.4,18.9,10.6
				c17.6,2.2,34.1,6.8,34.1,27c0,18.9-16.7,27-35.6,27c-17.3,0-30.6-5.3-36.9-20.8l13.3-6.9c3.8,9.3,13.6,13.4,23.8,13.4
				c10,0,19.5-3.5,19.5-12.7c0-8-8.3-11.3-19.6-12.5c-17.3-2.1-33.3-6.7-33.3-25.7c0-17.4,17.2-24.5,32.8-24.7
				c13.2,0,26.8,3.8,33.3,16.8L919.1,612.1z M924.6,634.9c-5.6-4.4-14.1-6.5-24.6-7.8c-7.4-0.9-21.2-2.5-21.2-13.2
				c0-6.7,5.3-13.9,20.1-13.9c9.1,0,16.9,4.1,20.9,8.7l8.3-4.3c-5.4-8.7-15.4-13.1-29.7-13.1c-8,0.1-15.4,2-20.8,5.4
				c-6.2,4-9.3,9.5-9.3,16.6c0,13.1,8.3,18.7,21.4,21.5H924.6z"/>
			<path class="st3" d="M778,591.6h63.4v15.5h-47.5v19.5h45.8v14.9h-45.8v19.1h47.5v15.7H778C778,648.1,778,619.8,778,591.6z
				 M838.8,604.5v-10.3h-58.2v40.7h56.5v-5.8h-43.2h-2.6v-2.6v-19.5v-2.6h2.6H838.8z"/>
			<path class="st3" d="M756.2,594.2h-13.4L721.1,628l-2.2,3.5l-2.2-3.5l-20.8-33.7h-13.2l27,40.7h18.4L756.2,594.2z M741.4,591.6
				h19.2v0.7l-33.8,49v35h-16v-35l-32.5-49v-0.7h19l21.5,35L741.4,591.6z"/>
			<path class="st3" d="M594.3,591.6h63.4v15.5h-47.5v19.5H656v14.9h-45.8v19.1h47.5v15.7h-63.4
				C594.3,648.1,594.3,619.8,594.3,591.6z M607.6,626.6v-19.5v-2.6h2.6h44.9v-10.3h-58.2v40.7h56.5v-5.8h-43.3h-2.6V626.6z"/>
			<path class="st3" d="M543.8,633.6c10.2,0,14.5-6.8,14.5-13.5c0-6.8-4.5-13.6-14.5-13.6h-24.3v27.1H543.8z M567.3,634.9
				c3.7-5.1,4.5-11,4.5-15.3c0-12.6-8.6-25.3-27.9-25.5c-6.7,0-13.5,0-20.1-0.1c-5.8,0-11.7,0-17.5-0.1v40.8h10.8v-1.3v-27.1v-2.6
				h2.6h24.3c11.8,0,17.1,8.4,17.1,16.2c0,6.1-3.1,12.3-9.8,14.9H567.3z M574.3,619.7c0,11.6-5.3,23.3-21.4,26.6l25.7,28.9v1.1h-19
				L534.9,648h-15.4v28.3h-16v-84.8c13.4,0,26.8,0.1,40.3,0.1C563.8,591.8,574.3,605.1,574.3,619.7z"/>
			<path class="st3" d="M405.5,594.4v40.6h10.6v-40.6H405.5z M464,594.4v40.6h10.6v-40.6H464z M461.4,591.8h15.8v48.5
				c0,25-15.4,37.9-36.6,37.9c-20.3,0-37.6-12.3-37.6-37.9v-48.5h15.9v48.5c0,15.2,8.7,23.3,21.9,23.3c13.2,0,20.7-8.8,20.7-23.3
				V591.8z"/>
			<path class="st3" d="M293.6,634.6c0-22.3,14.3-44.6,43.5-44.6c29.1,0,43.7,22.4,43.4,44.5c-0.3,21.9-13.7,43.8-43.4,43.8
				S293.6,656.8,293.6,634.6z M315.7,610.3c5.4-5.5,12.8-8.5,21.5-8.5c8.6,0,16,2.9,21.3,8.3c5.9,6,9.2,14.9,9,24.6l0,0.2H378
				c0-0.2,0-0.4,0-0.5c0.1-11.8-4.1-23-11.7-30.6c-7.3-7.4-17.4-11.3-29.1-11.3c-28.1,0-40.9,21.8-40.9,42c0,0.1,0,0.3,0,0.4h10.5
				v-0.1C306.5,625.3,309.8,616.4,315.7,610.3z M337.2,604.5c-20,0-28.2,16.1-27.8,30.4c0.4,13.9,7.9,28.8,27.8,28.8
				s27.5-15,27.7-28.9C365.1,620.4,357.1,604.5,337.2,604.5z"/>
			<path class="st3" d="M270.6,604.5v-10.1H215v40.6h53.2v-2.1h-39.9h-2.6v-2.6v-23.1v-2.6h2.6H270.6z M273.2,591.8v15.4h-44.9v23.1
				h42.5V645h-42.5v31.3h-16v-84.5H273.2z"/>
		</g>
		<g>
		</g>
	</g>
</g>
<path class="st3" d="M585.6,801.3h-12.2v38.9h12.2c2.3,0,4.1-2.4,4.1-5.3v-28.4C589.8,803.6,587.9,801.3,585.6,801.3z"/>
<path class="st4" d="M561.2,801.3c-2.3,0-4.1,2.4-4.1,5.3v28.4c0,2.9,1.8,5.3,4.1,5.3h12.2v-38.9H561.2z"/>
<path class="st3" d="M684.8,777.5l-92.6,26.8v33.6l92.6,32.1c7.4,0,13.4-5.6,13.4-12.5V790C698.2,783.1,692.2,777.5,684.8,777.5z"/>
<path class="st4" d="M448.6,789.1v67.5c0,6.9,6,12.5,13.4,12.5l92.6-32.1v-33.6L462,776.6C454.6,776.6,448.6,782.2,448.6,789.1z"/>
<path class="st5" d="M416.7,464.1v1.9c0,9.1,10.7,15.8,15.8,18.4c0,0.1,0.1,0.3,0.1,0.4c-0.1-2.7-1-5.5-1.2-8.2
	C425,474.7,419.2,470,416.7,464.1z"/>
<polygon class="st4" points="573.4,371.7 552.2,383.1 476.9,317.3 409.4,446.6 380.3,381.9 353.5,342.2 380.3,326.4 353.5,226.5 
	425.8,251.5 430.7,122.1 508,203.8 573.4,72.2 "/>
<polygon class="st3" points="573.4,371.7 594.7,383.1 670,317.3 737.5,446.6 766.6,381.9 793.3,342.2 766.6,326.4 793.3,226.5 
	721.1,251.5 716.2,122.1 638.9,203.8 573.4,72.2 "/>
<path class="st6" d="M710.6,446.2c-6.7-16.8-20.6-30-37.8-35.8v0.1c-6.3-2.1-13-3.3-19.9-3.3c-5.9,0-11.7,0.8-17.1,2.4v-0.1
	c-19.8,5.6-35.6,20.9-42,40.4H552c-6.1-18.5-20.7-33.2-39.2-39.5v0.1c-6.3-2.1-13-3.3-19.9-3.3c-5.9,0-11.7,0.8-17.1,2.4v-0.1
	c-18.6,5.3-33.6,19-40.7,36.7v0c-7.8-0.6-18.4,4.1-18.4,4.1v13.7c2.5,6,8.3,10.6,14.7,12.5c0,0,0,0,0,0c0.2,2.7,1.1,5.5,1.2,8.2
	c0,0,0,0.1,0,0.1c6.8,26.4,30.4,46,58.7,46.8c0.5,0,1.1,0,1.6,0c0.5,0,1.1,0,1.6,0c29.3-0.7,53.6-21.8,59.4-49.6
	c5.8-5.4,12.2-8.4,19-8.4c6.8,0,13.2,3,19,8.4c5.7,27.8,30,48.8,59.4,49.6c0.2,0,0.4,0,0.7,0c0.3,0,0.6,0,0.9,0c0,0,0,0,0,0
	c0.5,0,1.1,0,1.6,0c28.8-0.7,52.7-21,59-48c5.4-3,14.4-9.3,14.4-17.7v-15.5C727.9,450.4,718.3,446.2,710.6,446.2z M492.9,516.3
	c-25.9,0-46.9-21-46.9-46.9c0-18.1,10.3-33.9,25.3-41.7c0.8-0.6,1.6-1.2,2.5-1.7c5.8-2.6,12.3-4,19.1-4c11.4,0,21.8,4,29.9,10.7
	c0.7,0.8,1.4,1.6,2,2.4c9.2,8.6,14.9,20.8,14.9,34.3C539.8,495.3,518.8,516.3,492.9,516.3z M652.8,516.3c-25.9,0-46.9-21-46.9-46.9
	c0-18.1,10.3-33.9,25.3-41.7c0.8-0.6,1.6-1.2,2.5-1.7c5.8-2.6,12.3-4,19.1-4c11.4,0,21.8,4,29.9,10.7c0.7,0.8,1.4,1.6,2.1,2.4
	c9.2,8.6,14.9,20.8,14.9,34.3C699.7,495.3,678.7,516.3,652.8,516.3z"/>
<circle class="st7" cx="86.4" cy="358.8" r="45.5"/>
<circle class="st7" cx="806.9" cy="762.5" r="24.2"/>
<circle class="st7" cx="968.5" cy="89.7" r="26.8"/>
<g>
	<g>
		<circle class="st7" cx="662.8" cy="476.8" r="4.3"/>
		<circle class="st7" cx="639.3" cy="474.5" r="6.5"/>
		<circle class="st7" cx="650.1" cy="485" r="4.2"/>
	</g>
	<path class="st7" d="M650.1,492.7c-15.3,4-25.3,1.9-31.6-1.2c6.9,11.7,19.7,19.6,34.3,19.6c14.4,0,27-7.6,34-19.1l-21.5-2.3
		C660.8,490.3,655.8,491.3,650.1,492.7z"/>
</g>
<g>
	<g>
		<circle class="st7" cx="482.9" cy="476.8" r="4.3"/>
		<circle class="st7" cx="506.4" cy="474.5" r="6.5"/>
		<circle class="st7" cx="495.6" cy="485" r="4.2"/>
	</g>
	<path class="st7" d="M495.6,492.7c15.3,4,25.3,1.9,31.6-1.2c-6.9,11.7-19.7,19.6-34.3,19.6c-14.4,0-27-7.6-34-19.1l21.5-2.3
		C484.9,490.3,489.9,491.3,495.6,492.7z"/>
</g>
<path class="st4" d="M193.7,795.2c-14.7-14.7-11.5-45.6,6.4-87.7h-16.3c-8.3,17-14.7,32.5-19,46.5c-10,32.3-9,54.8,3.2,66.9
	c12.2,12.2,34.7,13.2,66.9,3.2c31.1-9.7,70-29.3,115.5-58.3c7.7-4.9,15.5-10,23.5-15.4v-4.8v-8.2
	C285.3,795.3,217.8,819.3,193.7,795.2z"/>
<path class="st3" d="M954.9,691.4c-1.7,1.4-3.4,2.7-5.2,3.9c-2.1,1.4-4.3,2.7-6.5,3.9c21.1,46.2,25.7,80.3,10.1,95.9
	c-16.6,16.6-54,10.3-104.8-14.2c-1.9,4.2-4.4,8-7.3,11.4c26.7,14.7,50.5,25.4,70.9,31.7c32.3,10,54.8,9,66.9-3.2
	c12.2-12.2,13.2-34.7,3.2-66.9C976.4,735.8,967.3,714.8,954.9,691.4z"/>
<path class="st3" d="M953.2,35.7c5,5,7.9,11.8,8.9,20.3c2.1-0.4,4.2-0.6,6.4-0.6c6.6,0,12.7,1.9,17.9,5.1c5-23.6,2.5-40.5-7.5-50.5
	C966.8-2.2,944.2-3.2,912,6.8c-31.1,9.7-70,29.3-115.5,58.3c-11.2,7.1-22.6,14.7-34.3,22.7l0.5,12.4
	C856.3,37.5,928.2,10.7,953.2,35.7z"/>
<path class="st4" d="M319.7,520.6c15.6-19.8,32.3-40.1,50-60.8l-3.9-8.6c-11.4,13.1-22.5,26.1-33.2,39.1
	c-8.1,9.8-15.9,19.4-23.5,28.9c-7.1-0.9-14.1-1.8-21-2.8v0c-2.2-0.3-4.3-0.6-6.4-0.9c-0.6-0.1-1.2-0.2-1.9-0.3
	c-3.7-0.5-7.4-1.1-11.1-1.7c-0.7-0.1-1.4-0.2-2.1-0.3c-139-21.6-230.2-57.4-230.2-97.8c0-6.2,2.2-12.3,6.3-18.3
	c-5.7-6.5-10-14.2-12.3-22.7C10.2,387.6,0,401.4,0,415.5c0,17.2,15.2,33.9,45.1,49.6c28.9,15.2,70.2,28.8,122.9,40.5
	c29.1,6.5,60.9,12.2,95.1,17.1v0c8.8,1.3,17.8,2.5,26.9,3.6l29.8,3.1h19.8h46.8h14.5l-0.4-0.9C372.4,526.3,345.4,523.7,319.7,520.6z
	"/>
<path class="st3" d="M1101.8,365.9c-28.9-15.2-70.2-28.8-122.9-40.5c-40-8.9-85.1-16.3-134.5-22.2c30.7-39,57.3-76.2,79.4-110.8
	c15.9-25,29-48.1,39.2-68.9c-5.1-0.8-9.9-2.8-14-5.6c-19.4,47.9-59,111.3-113.7,182l24.6,14.6l-0.1,0.2
	c150.5,21.2,250.7,58.5,250.7,100.9c0,40.1-89.6,75.7-226.7,97.3c-14.8,2.3-30.2,4.5-46,6.5c-7.6-9.5-15.4-19.2-23.5-28.9
	c-10.8-13-21.9-26.1-33.2-39.1l-3.9,8.6c17.7,20.7,34.4,41,50,60.8c-25.8,3.1-52.8,5.7-80.8,7.8l-0.4,0.9h14.5h46.8h19.8l29.8-3.1
	c9.1-1.2,18.1-2.4,26.9-3.6c34.2-4.9,66-10.6,95.1-17.1c52.7-11.7,94-25.3,122.9-40.5c29.9-15.7,45.1-32.4,45.1-49.6
	C1146.9,398.3,1131.7,381.6,1101.8,365.9z"/>
<circle class="st7" cx="400" cy="108.8" r="23"/>
<path class="st4" d="M193.7,35.7c23.8-23.8,90.1-0.7,177.2,55.7c1.8-3.2,4.3-6,7.1-8.2c-9.4-6.4-18.6-12.4-27.6-18.2
	c-45.5-29-84.4-48.6-115.5-58.3c-32.3-10-54.8-9-66.9,3.2c-12.2,12.2-13.2,34.7-3.2,66.9c9.7,31.1,29.3,70,58.3,115.5
	c22,34.6,48.6,71.7,79.4,110.8c-49.3,5.9-94.4,13.3-134.5,22.2c-10.4,2.3-20.3,4.7-29.8,7.1c1.9,3.7,3.4,7.7,4.5,11.8
	c39.5-11.8,88.5-21.9,144.5-29.7l-0.1-0.2l24.6-14.6C212.1,171.3,162.5,67,193.7,35.7z"/>
<g>
	<path class="st5" d="M259.8,597.5h-29.4V618h27v15.2h-27v32.4h-18.8v-83.3h48.2V597.5z"/>
	<path class="st5" d="M326.9,667c-11.9,0-21.7-3.9-29.2-11.7c-7.5-7.8-11.3-17.9-11.3-30.4c0-13.2,3.8-23.8,11.4-32
		c7.6-8.1,17.7-12.2,30.3-12.2c11.9,0,21.5,3.9,28.8,11.7c7.3,7.8,11,18.1,11,30.8c0,13.1-3.8,23.6-11.4,31.7
		C349.1,663,339.2,667,326.9,667z M327.7,597c-6.6,0-11.8,2.5-15.7,7.4c-3.9,4.9-5.8,11.5-5.8,19.6c0,8.3,1.9,14.8,5.8,19.6
		c3.9,4.8,8.9,7.2,15.2,7.2c6.5,0,11.6-2.3,15.4-7c3.8-4.7,5.7-11.1,5.7-19.4c0-8.6-1.8-15.4-5.5-20.2
		C339.2,599.4,334.1,597,327.7,597z"/>
	<path class="st5" d="M468.1,629.5c0,25-11.7,37.5-35,37.5c-22.6,0-33.9-12.2-33.9-36.7v-48.1H418v48.3c0,13.5,5.3,20.2,15.8,20.2
		c10.3,0,15.5-6.5,15.5-19.5v-49h18.8V629.5z"/>
	<path class="st5" d="M574.3,665.6h-21.6l-13-21.4c-1-1.6-1.9-3.1-2.8-4.4c-0.9-1.3-1.8-2.4-2.7-3.3c-0.9-0.9-1.9-1.6-2.8-2.1
		c-1-0.5-2.1-0.7-3.2-0.7h-5.1v31.9h-18.8v-83.3h29.8c20.2,0,30.3,7.6,30.3,22.7c0,2.9-0.4,5.6-1.3,8c-0.9,2.5-2.1,4.7-3.8,6.7
		c-1.6,2-3.6,3.7-5.9,5.1c-2.3,1.4-4.9,2.6-7.7,3.4v0.2c1.2,0.4,2.4,1,3.6,1.9c1.2,0.9,2.3,1.9,3.4,3.1c1.1,1.2,2.1,2.4,3.1,3.7
		c1,1.3,1.9,2.6,2.7,3.9L574.3,665.6z M523.2,596.3v23.2h8.1c4,0,7.3-1.2,9.7-3.5c2.5-2.4,3.7-5.3,3.7-8.8c0-7.3-4.4-10.9-13.1-10.9
		H523.2z"/>
	<path class="st5" d="M650.3,665.6h-50v-83.3h48.1v15.3h-29.3v18.5h27.3v15.2h-27.3v19.1h31.2V665.6z"/>
	<path class="st5" d="M744.7,582.3L717.5,636v29.6h-18.8v-29.3l-26.4-54h21.4l13.4,31.1c0.2,0.6,0.9,2.8,1.9,6.8h0.2
		c0.5-2.8,1.1-5,1.8-6.6l13.7-31.3H744.7z"/>
	<path class="st5" d="M822.3,665.6h-50v-83.3h48.1v15.3h-29.3v18.5h27.3v15.2h-27.3v19.1h31.2V665.6z"/>
	<path class="st5" d="M850,662.4v-18.6c3.4,2.8,7,4.9,11,6.4s7.9,2.1,12,2.1c2.4,0,4.4-0.2,6.2-0.6c1.8-0.4,3.2-1,4.4-1.8
		c1.2-0.8,2.1-1.6,2.6-2.7c0.6-1,0.9-2.1,0.9-3.3c0-1.6-0.5-3.1-1.4-4.4c-0.9-1.3-2.2-2.5-3.8-3.5c-1.6-1.1-3.5-2.1-5.7-3.1
		c-2.2-1-4.6-2-7.1-3.1c-6.5-2.7-11.4-6-14.6-9.9c-3.2-3.9-4.8-8.6-4.8-14.2c0-4.3,0.9-8.1,2.6-11.2c1.7-3.1,4.1-5.7,7.1-7.7
		c3-2,6.5-3.5,10.4-4.4s8.1-1.4,12.6-1.4c4.3,0,8.2,0.3,11.5,0.8c3.4,0.5,6.4,1.3,9.3,2.4v17.4c-1.4-1-2.9-1.8-4.6-2.6
		c-1.6-0.7-3.3-1.3-5.1-1.8c-1.7-0.5-3.5-0.8-5.2-1.1s-3.4-0.3-4.9-0.3c-2.1,0-4.1,0.2-5.8,0.6c-1.7,0.4-3.2,1-4.4,1.7
		c-1.2,0.7-2.1,1.6-2.8,2.6c-0.7,1-1,2.2-1,3.5c0,1.4,0.4,2.6,1.1,3.7c0.7,1.1,1.8,2.2,3.1,3.1c1.4,1,3,2,4.9,2.9
		c1.9,1,4.1,1.9,6.6,2.9c3.3,1.4,6.3,2.9,9,4.4c2.7,1.6,4.9,3.3,6.8,5.3c1.9,2,3.4,4.2,4.4,6.8c1,2.5,1.5,5.5,1.5,8.9
		c0,4.6-0.9,8.6-2.6,11.7c-1.8,3.2-4.2,5.7-7.2,7.7s-6.5,3.4-10.5,4.2c-4,0.9-8.2,1.3-12.7,1.3c-4.6,0-8.9-0.4-13-1.2
		C856.6,665.1,853,663.9,850,662.4z"/>
</g>
<g>
	<path class="st5" d="M478.4,739.6h-26.3v-44.1h9.9v36.1h16.3V739.6z"/>
	<path class="st5" d="M560.9,739.6h-10.8l-3.1-9.8h-15.7l-3.1,9.8h-10.8l16.1-44.1h11.8L560.9,739.6z M544.7,722.1l-4.7-14.8
		c-0.3-1.1-0.6-2.4-0.7-4H539c-0.1,1.3-0.4,2.6-0.8,3.8l-4.8,15H544.7z"/>
	<path class="st5" d="M604.3,739.6v-44.1h16.1c4.9,0,8.7,0.9,11.4,2.7c2.6,1.8,4,4.3,4,7.6c0,2.4-0.8,4.5-2.4,6.2
		c-1.6,1.8-3.7,3-6.2,3.7v0.1c3.1,0.4,5.6,1.5,7.5,3.5c1.9,1.9,2.8,4.3,2.8,7c0,4-1.4,7.2-4.3,9.6c-2.9,2.4-6.8,3.6-11.8,3.6H604.3z
		 M614.2,702.8v10.5h4.4c2,0,3.7-0.5,4.8-1.5c1.2-1,1.8-2.4,1.8-4.1c0-3.2-2.4-4.9-7.3-4.9H614.2z M614.2,720.6v11.6h5.4
		c2.3,0,4.1-0.5,5.4-1.6s2-2.5,2-4.4c0-1.8-0.6-3.1-1.9-4.2c-1.3-1-3.1-1.5-5.4-1.5H614.2z"/>
	<path class="st5" d="M680.4,737.9V728c1.8,1.5,3.7,2.6,5.8,3.4s4.2,1.1,6.3,1.1c1.3,0,2.3-0.1,3.3-0.3s1.7-0.5,2.3-0.9
		c0.6-0.4,1.1-0.9,1.4-1.4c0.3-0.5,0.5-1.1,0.5-1.8c0-0.9-0.2-1.6-0.7-2.3c-0.5-0.7-1.2-1.3-2-1.9c-0.9-0.6-1.9-1.1-3-1.7
		s-2.4-1.1-3.8-1.6c-3.4-1.4-6-3.2-7.7-5.3c-1.7-2.1-2.5-4.6-2.5-7.5c0-2.3,0.5-4.3,1.4-5.9c0.9-1.7,2.2-3,3.8-4.1
		c1.6-1.1,3.4-1.8,5.5-2.4s4.3-0.8,6.6-0.8c2.3,0,4.3,0.1,6.1,0.4c1.8,0.3,3.4,0.7,4.9,1.3v9.2c-0.7-0.5-1.5-1-2.4-1.4
		c-0.9-0.4-1.8-0.7-2.7-1c-0.9-0.3-1.8-0.4-2.8-0.6s-1.8-0.2-2.6-0.2c-1.1,0-2.2,0.1-3.1,0.3c-0.9,0.2-1.7,0.5-2.3,0.9
		c-0.6,0.4-1.1,0.9-1.5,1.4c-0.3,0.5-0.5,1.2-0.5,1.8c0,0.7,0.2,1.4,0.6,2c0.4,0.6,0.9,1.1,1.7,1.7c0.7,0.5,1.6,1,2.6,1.5
		c1,0.5,2.2,1,3.5,1.6c1.8,0.7,3.3,1.5,4.8,2.4c1.4,0.8,2.6,1.8,3.6,2.8s1.8,2.2,2.3,3.6s0.8,2.9,0.8,4.7c0,2.5-0.5,4.5-1.4,6.2
		c-0.9,1.7-2.2,3-3.8,4.1s-3.5,1.8-5.6,2.2c-2.1,0.5-4.4,0.7-6.7,0.7c-2.4,0-4.7-0.2-6.9-0.6C683.9,739.3,682,738.7,680.4,737.9z"/>
</g>
</svg>
